<?xml version="1.0" encoding="utf-8"?>
<!-- Generator: Adobe Illustrator 24.1.1, SVG Export Plug-In . SVG Version: 6.00 Build 0)  -->
<svg version="1.1" id="Layer_1" xmlns="http://www.w3.org/2000/svg" xmlns:xlink="http://www.w3.org/1999/xlink" x="0px" y="0px"
	 viewBox="0 0 270 121" style="enable-background:new 0 0 270 121;" xml:space="preserve">
<style type="text/css">
	.st0{clip-path:url(#SVGID_2_);fill:#FFFFFF;}
	.st1{clip-path:url(#SVGID_4_);fill:#A6A6A6;}
</style>
<g>
	<g>
		<g>
			<g>
				<defs>
					<rect id="SVGID_1_" x="3" y="3.1" width="260" height="113"/>
				</defs>
				<clipPath id="SVGID_2_">
					<use xlink:href="#SVGID_1_"  style="overflow:visible;"/>
				</clipPath>
				<path class="st0" d="M61.1,82.3c0,1.1-0.5,1.6-1.6,1.6c-0.5,0-0.9-0.2-1.2-0.6L3.4,7C3.3,6.8,3.2,6.5,3.2,6.1
					c0-1.1,0.5-1.6,1.5-1.6c0.4,0,0.8,0.2,1.2,0.7L58,77.6v-72c0-0.4,0.1-0.8,0.4-1s0.6-0.5,1.1-0.5c0.4,0,0.8,0.1,1.1,0.5
					c0.3,0.3,0.4,0.6,0.4,1L61.1,82.3 M49,82.4c0,0.4-0.2,0.8-0.5,1s-0.7,0.5-1.1,0.5c-0.5,0-0.9-0.2-1.2-0.6l-40-56.2v55.2
					c0,0.4-0.2,0.8-0.5,1.1c-0.3,0.3-0.7,0.5-1.1,0.5c-1.1,0-1.6-0.5-1.6-1.6V22.2c0-0.3,0.2-0.7,0.5-1s0.7-0.5,1-0.5
					c0.5,0,0.9,0.2,1.3,0.7c0.5,0.7,1.4,2,2.9,4s3.3,4.5,5.4,7.4s4.5,6.2,7,9.7s5.1,7.1,7.7,10.7c2.6,3.6,5.1,7.1,7.5,10.5
					s4.6,6.5,6.5,9.2s3.4,4.9,4.5,6.6C48.4,81.3,49,82.2,49,82.4L49,82.4z M84.1,82.4c0,0.5-0.2,0.8-0.5,1.1
					c-0.3,0.3-0.7,0.4-1.1,0.4s-0.8-0.1-1.1-0.5c-0.3-0.3-0.4-0.6-0.4-1V5.6c0-0.4,0.1-0.8,0.4-1s0.6-0.5,1.1-0.5
					c0.4,0,0.8,0.1,1.1,0.4c0.3,0.3,0.5,0.6,0.5,1.1V82.4z M182.8,5.5c0,0.3,0,0.5-0.1,0.6v76.4c0,0.4-0.1,0.8-0.5,1
					c-0.3,0.3-0.6,0.5-1,0.5s-0.7-0.1-1-0.5c-0.3-0.3-0.4-0.6-0.4-1V10.4l-34.4,48.2c0.3,0.5,0.9,1.3,1.8,2.6c0.9,1.3,2,2.8,3.2,4.4
					c1.2,1.7,2.5,3.5,3.9,5.3s2.7,3.6,3.8,5.2s2.1,3,2.9,4.1s1.1,1.8,1.1,2.1c0,0.5-0.2,0.9-0.5,1.1c-0.3,0.3-0.7,0.5-1.1,0.5
					c-0.5,0-0.9-0.2-1.2-0.6L104.4,6.9c-0.2-0.3-0.3-0.6-0.3-1s0.1-0.8,0.4-1s0.6-0.5,1.1-0.5c0.6,0,1,0.2,1.3,0.7L143.4,56L180,4.7
					c0.3-0.4,0.6-0.6,1.1-0.6c0.4,0,0.8,0.1,1.1,0.4C182.6,4.7,182.8,5.1,182.8,5.5 M150,82.4c0,0.4-0.2,0.8-0.5,1s-0.7,0.5-1.1,0.5
					c-0.5,0-0.9-0.2-1.2-0.6L107.1,27v54.9c0,0.5-0.2,0.8-0.5,1.1c-0.3,0.3-0.7,0.4-1.1,0.4s-0.8-0.1-1.1-0.5
					c-0.3-0.3-0.5-0.6-0.5-1V22.4c0-0.5,0.1-0.9,0.4-1.3s0.7-0.6,1.2-0.6s0.9,0.2,1.2,0.7c0.5,0.7,1.5,2,2.9,4
					c1.5,2,3.3,4.5,5.4,7.4s4.4,6.2,7,9.7s5.1,7.1,7.7,10.7c2.6,3.6,5.1,7.2,7.5,10.6s4.6,6.5,6.5,9.2s3.4,4.9,4.5,6.6
					C149.5,81.3,150,82.2,150,82.4L150,82.4z M262.9,82.4c0,0.4-0.1,0.8-0.5,1c-0.3,0.3-0.6,0.5-1,0.5c-0.8,0-1.3-0.3-1.5-1
					l-29-73.3l-3.3,8.5c0.3,0.5,0.8,1.9,1.7,4s1.9,4.7,3.2,7.8s2.6,6.5,4.1,10.3s3,7.6,4.5,11.4s3,7.6,4.4,11.3s2.7,6.9,3.8,9.8
					s2,5.2,2.6,6.9c0.7,1.8,1,2.7,1,2.8c0,0.7-0.3,1.2-1,1.4c-0.1,0-0.2,0-0.3,0s-0.2,0-0.3,0c-0.7,0-1.1-0.3-1.4-1l-24-60.5
					l-23.3,60.5c-0.3,0.7-0.8,1-1.5,1c-0.1,0-0.2,0-0.3,0c0,0-0.1,0-0.3,0c-0.7-0.2-1-0.7-1-1.5c0-0.1,0.4-1.2,1.2-3.3
					c0.8-2.1,1.8-4.9,3.1-8.3s2.8-7.3,4.5-11.7s3.4-8.9,5.2-13.5s3.5-9.2,5.3-13.7s3.4-8.7,4.8-12.4c1.4-3.8,2.6-6.9,3.6-9.5
					s1.6-4.2,1.9-4.9c0.3-0.6,0.8-0.9,1.5-0.9s1.2,0.3,1.4,0.9c0.3,0.7,0.9,2.4,2,4.9s2.3,5.7,3.7,9.5s3.1,7.9,4.9,12.4
					c1.8,4.5,3.7,9.1,5.5,13.7s3.6,9.1,5.4,13.5c1.8,4.4,3.3,8.3,4.6,11.7c1.3,3.4,2.4,6.2,3.3,8.3
					C262.5,81.3,262.9,82.4,262.9,82.4L262.9,82.4z"/>
			</g>
		</g>
		<g>
			<g>
				<defs>
					<rect id="SVGID_3_" x="3" y="3.1" width="260" height="113"/>
				</defs>
				<clipPath id="SVGID_4_">
					<use xlink:href="#SVGID_3_"  style="overflow:visible;"/>
				</clipPath>
				<path class="st1" d="M3.8,102H9c8,0,8,13.1,0,13.1H3.8V102z M8.9,115.8c9,0,9-14.5,0-14.5H3.6c-0.3,0-0.6,0.3-0.6,0.6v13.4
					c0,0.3,0.3,0.6,0.6,0.6L8.9,115.8L8.9,115.8z M29.2,108.9h9.6c0.5,0,0.5-0.7,0-0.7h-9.6V102h10.1c0.5,0,0.5-0.7,0-0.7H29.1
					c-0.4,0-0.6,0.3-0.6,0.6v13.3c0,0.3,0.3,0.6,0.6,0.6h10.3c0.5,0,0.5-0.7,0-0.7H29.2V108.9z M58,115.8c0.2,0.3,0.5,0.3,0.7,0
					l6.9-14c0.3-0.6-0.6-0.8-0.7-0.3l-6.5,13.2l-6.7-13.2c-0.2-0.5-1-0.2-0.8,0.3L58,115.8z M78.5,108.9h9.7c0.5,0,0.5-0.7,0-0.7
					h-9.6V102h10.1c0.5,0,0.5-0.7,0-0.7H78.4c-0.4,0-0.6,0.3-0.6,0.6v13.3c0,0.3,0.3,0.6,0.6,0.6h10.2c0.5,0,0.5-0.7,0-0.7H78.5
					V108.9L78.5,108.9z M112.3,115.8c0.5,0,0.5-0.7,0-0.7h-9.6v-13.6c0-0.6-0.8-0.6-0.8,0v13.8c0,0.3,0.1,0.4,0.4,0.4L112.3,115.8
					L112.3,115.8z M130.1,116.1c4,0,7.4-3.4,7.3-7.8c-0.1-3.5-2.6-6.7-6.2-7.3c-0.8-0.1-1.7-0.1-2.5,0c-3.6,0.6-5.8,3.7-5.9,7.3
					C122.7,112.7,126.1,116.1,130.1,116.1L130.1,116.1z M128.8,101.8c0.7-0.1,1.5-0.1,2.2,0c3.3,0.5,5.5,3.3,5.5,6.5
					c0.1,3.9-3,7.1-6.5,7.1s-6.6-3.1-6.5-7.1C123.7,105.1,125.6,102.3,128.8,101.8L128.8,101.8z M151,102h4.9c3.1,0,5,2.2,5,4.5
					c0,2.1-1.5,4.1-5,4.1H151V102z M155.8,111.3c3.9,0,5.8-2.2,5.8-4.9c0-2.6-2-5.2-5.8-5.2h-5.2c-0.2,0-0.4,0.2-0.4,0.4v13.9
					c0,0.5,0.8,0.5,0.8,0v-4.2L155.8,111.3L155.8,111.3z M181.5,111.3l-6.4-9.9c-0.2-0.4-0.7-0.3-0.7,0.2v13.8c0,0.5,0.8,0.5,0.8,0
					v-12.6l5.9,9.2c0.2,0.3,0.6,0.3,0.8,0l5.9-9.3v12.6c0,0.5,0.8,0.5,0.8,0v-13.8c0-0.5-0.5-0.6-0.8-0.2L181.5,111.3z M203,108.9
					h9.6c0.5,0,0.5-0.7,0-0.7H203V102h10.1c0.5,0,0.5-0.7,0-0.7h-10.3c-0.4,0-0.6,0.3-0.6,0.6v13.3c0,0.3,0.3,0.6,0.6,0.6h10.3
					c0.5,0,0.5-0.7,0-0.7H203V108.9z M237.1,114.4l-9.9-13c-0.3-0.4-0.8-0.3-0.8,0.2v13.7c0,0.5,0.8,0.5,0.8,0v-12.8l10,13
					c0.3,0.4,0.8,0.4,0.8-0.2v-13.8c0-0.6-0.8-0.6-0.8,0v12.9H237.1z M249.9,101.2c-0.5,0-0.5,0.7,0,0.7h5.9v13.5
					c0,0.3,0.2,0.4,0.4,0.4c0.2,0,0.4-0.1,0.4-0.4v-13.5h5.9c0.5,0,0.5-0.7,0-0.7H249.9z"/>
			</g>
		</g>
	</g>
</g>
</svg>
